<mxfile host="Electron" agent="Mozilla/5.0 (Windows NT 10.0; Win64; x64) AppleWebKit/537.36 (KHTML, like Gecko) draw.io/28.0.6 Chrome/138.0.7204.100 Electron/37.2.3 Safari/537.36" version="28.0.6" pages="2">
  <diagram name="Page-1" id="SlReekU_c0KdFjE2Es3t">
    <mxGraphModel dx="983" dy="1803" grid="1" gridSize="10" guides="1" tooltips="1" connect="1" arrows="1" fold="1" page="1" pageScale="1" pageWidth="850" pageHeight="1100" math="0" shadow="0">
      <root>
        <mxCell id="0" />
        <mxCell id="1" parent="0" />
        <mxCell id="MJtFDDiAwrRW_KD7ph5Q-5" value="" style="rounded=0;whiteSpace=wrap;html=1;" parent="1" vertex="1">
          <mxGeometry x="80" y="260" width="650" height="1030" as="geometry" />
        </mxCell>
        <mxCell id="2-cIgJVy39CJ9VgtjeOx-20" style="edgeStyle=orthogonalEdgeStyle;orthogonalLoop=1;jettySize=auto;html=1;exitX=1;exitY=0.5;exitDx=0;exitDy=0;entryX=-0.011;entryY=0.546;entryDx=0;entryDy=0;entryPerimeter=0;" edge="1" parent="1" source="MJtFDDiAwrRW_KD7ph5Q-1" target="2-cIgJVy39CJ9VgtjeOx-22">
          <mxGeometry relative="1" as="geometry">
            <mxPoint x="910" y="90" as="targetPoint" />
          </mxGeometry>
        </mxCell>
        <mxCell id="MJtFDDiAwrRW_KD7ph5Q-1" value="Reddit post + submission" style="shape=parallelogram;perimeter=parallelogramPerimeter;whiteSpace=wrap;html=1;fixedSize=1;rounded=0;" parent="1" vertex="1">
          <mxGeometry x="345" y="60" width="120" height="60" as="geometry" />
        </mxCell>
        <mxCell id="MJtFDDiAwrRW_KD7ph5Q-9" style="edgeStyle=orthogonalEdgeStyle;rounded=0;orthogonalLoop=1;jettySize=auto;html=1;exitX=0.5;exitY=1;exitDx=0;exitDy=0;entryX=0.5;entryY=0;entryDx=0;entryDy=0;" parent="1" source="MJtFDDiAwrRW_KD7ph5Q-2" target="MJtFDDiAwrRW_KD7ph5Q-5" edge="1">
          <mxGeometry relative="1" as="geometry" />
        </mxCell>
        <mxCell id="2-cIgJVy39CJ9VgtjeOx-19" style="edgeStyle=orthogonalEdgeStyle;orthogonalLoop=1;jettySize=auto;html=1;exitX=1;exitY=0.5;exitDx=0;exitDy=0;entryX=0;entryY=0.847;entryDx=0;entryDy=0;entryPerimeter=0;" edge="1" parent="1" source="MJtFDDiAwrRW_KD7ph5Q-2" target="2-cIgJVy39CJ9VgtjeOx-22">
          <mxGeometry relative="1" as="geometry">
            <mxPoint x="910" y="189.5" as="targetPoint" />
          </mxGeometry>
        </mxCell>
        <mxCell id="MJtFDDiAwrRW_KD7ph5Q-2" value="Predict score" style="rounded=0;whiteSpace=wrap;html=1;" parent="1" vertex="1">
          <mxGeometry x="345" y="160" width="120" height="60" as="geometry" />
        </mxCell>
        <mxCell id="MJtFDDiAwrRW_KD7ph5Q-10" style="edgeStyle=orthogonalEdgeStyle;rounded=0;orthogonalLoop=1;jettySize=auto;html=1;exitX=1;exitY=0.5;exitDx=0;exitDy=0;entryX=0;entryY=0.5;entryDx=0;entryDy=0;" parent="1" source="MJtFDDiAwrRW_KD7ph5Q-3" target="MJtFDDiAwrRW_KD7ph5Q-4" edge="1">
          <mxGeometry relative="1" as="geometry" />
        </mxCell>
        <mxCell id="MJtFDDiAwrRW_KD7ph5Q-3" value="Extract keywords" style="rounded=0;whiteSpace=wrap;html=1;" parent="1" vertex="1">
          <mxGeometry x="170" y="280" width="120" height="60" as="geometry" />
        </mxCell>
        <mxCell id="MJtFDDiAwrRW_KD7ph5Q-4" value="Select posts by subreddit + keywords" style="rounded=0;whiteSpace=wrap;html=1;" parent="1" vertex="1">
          <mxGeometry x="390" y="280" width="120" height="60" as="geometry" />
        </mxCell>
        <mxCell id="BvKrgGBsIGder71D60DG-8" style="edgeStyle=orthogonalEdgeStyle;orthogonalLoop=1;jettySize=auto;html=1;exitX=0.5;exitY=1;exitDx=0;exitDy=0;" edge="1" parent="1" source="MJtFDDiAwrRW_KD7ph5Q-6">
          <mxGeometry relative="1" as="geometry">
            <mxPoint x="405" y="1040" as="targetPoint" />
          </mxGeometry>
        </mxCell>
        <mxCell id="2-cIgJVy39CJ9VgtjeOx-9" style="edgeStyle=orthogonalEdgeStyle;orthogonalLoop=1;jettySize=auto;html=1;exitX=0.686;exitY=1.002;exitDx=0;exitDy=0;entryX=0.75;entryY=0;entryDx=0;entryDy=0;exitPerimeter=0;" edge="1" parent="1" source="MJtFDDiAwrRW_KD7ph5Q-6" target="2-cIgJVy39CJ9VgtjeOx-4">
          <mxGeometry relative="1" as="geometry" />
        </mxCell>
        <mxCell id="MJtFDDiAwrRW_KD7ph5Q-6" value="Extract top 10 comments per post" style="rounded=0;whiteSpace=wrap;html=1;verticalAlign=top;" parent="1" vertex="1">
          <mxGeometry x="100" y="360" width="610" height="640" as="geometry" />
        </mxCell>
        <mxCell id="MJtFDDiAwrRW_KD7ph5Q-8" value="" style="endArrow=classic;html=1;rounded=0;exitX=0.5;exitY=1;exitDx=0;exitDy=0;entryX=0.5;entryY=0;entryDx=0;entryDy=0;" parent="1" source="MJtFDDiAwrRW_KD7ph5Q-1" target="MJtFDDiAwrRW_KD7ph5Q-2" edge="1">
          <mxGeometry width="50" height="50" relative="1" as="geometry">
            <mxPoint x="350" y="150" as="sourcePoint" />
            <mxPoint x="450" y="370" as="targetPoint" />
          </mxGeometry>
        </mxCell>
        <mxCell id="MJtFDDiAwrRW_KD7ph5Q-13" value="" style="endArrow=classic;html=1;rounded=0;exitX=0.5;exitY=1;exitDx=0;exitDy=0;" parent="1" source="MJtFDDiAwrRW_KD7ph5Q-4" edge="1">
          <mxGeometry width="50" height="50" relative="1" as="geometry">
            <mxPoint x="400" y="420" as="sourcePoint" />
            <mxPoint x="450" y="360" as="targetPoint" />
          </mxGeometry>
        </mxCell>
        <mxCell id="MJtFDDiAwrRW_KD7ph5Q-16" style="edgeStyle=orthogonalEdgeStyle;rounded=0;orthogonalLoop=1;jettySize=auto;html=1;" parent="1" source="MJtFDDiAwrRW_KD7ph5Q-14" target="MJtFDDiAwrRW_KD7ph5Q-15" edge="1">
          <mxGeometry relative="1" as="geometry" />
        </mxCell>
        <mxCell id="MJtFDDiAwrRW_KD7ph5Q-14" value="Log user" style="rounded=0;whiteSpace=wrap;html=1;" parent="1" vertex="1">
          <mxGeometry x="130" y="400" width="120" height="60" as="geometry" />
        </mxCell>
        <mxCell id="MJtFDDiAwrRW_KD7ph5Q-15" value="Log comment" style="rounded=0;whiteSpace=wrap;html=1;" parent="1" vertex="1">
          <mxGeometry x="315" y="400" width="120" height="60" as="geometry" />
        </mxCell>
        <mxCell id="MJtFDDiAwrRW_KD7ph5Q-18" value="" style="endArrow=classic;html=1;rounded=0;entryX=0.5;entryY=0;entryDx=0;entryDy=0;exitX=0.5;exitY=1;exitDx=0;exitDy=0;" parent="1" source="MJtFDDiAwrRW_KD7ph5Q-15" target="MJtFDDiAwrRW_KD7ph5Q-28" edge="1">
          <mxGeometry width="50" height="50" relative="1" as="geometry">
            <mxPoint x="340" y="460" as="sourcePoint" />
            <mxPoint x="220" y="520" as="targetPoint" />
          </mxGeometry>
        </mxCell>
        <mxCell id="MJtFDDiAwrRW_KD7ph5Q-19" value="" style="endArrow=classic;html=1;rounded=0;entryX=0.5;entryY=0;entryDx=0;entryDy=0;exitX=0.722;exitY=0.761;exitDx=0;exitDy=0;exitPerimeter=0;" parent="1" source="MJtFDDiAwrRW_KD7ph5Q-28" target="MJtFDDiAwrRW_KD7ph5Q-20" edge="1">
          <mxGeometry width="50" height="50" relative="1" as="geometry">
            <mxPoint x="310" y="620" as="sourcePoint" />
            <mxPoint x="580" y="424" as="targetPoint" />
          </mxGeometry>
        </mxCell>
        <mxCell id="MJtFDDiAwrRW_KD7ph5Q-21" value="Yes" style="edgeLabel;html=1;align=center;verticalAlign=middle;resizable=0;points=[];rounded=0;" parent="MJtFDDiAwrRW_KD7ph5Q-19" vertex="1" connectable="0">
          <mxGeometry x="0.0333" y="1" relative="1" as="geometry">
            <mxPoint as="offset" />
          </mxGeometry>
        </mxCell>
        <mxCell id="MJtFDDiAwrRW_KD7ph5Q-31" style="edgeStyle=orthogonalEdgeStyle;rounded=0;orthogonalLoop=1;jettySize=auto;html=1;exitX=1;exitY=0.5;exitDx=0;exitDy=0;entryX=0;entryY=0.5;entryDx=0;entryDy=0;" parent="1" source="MJtFDDiAwrRW_KD7ph5Q-20" target="MJtFDDiAwrRW_KD7ph5Q-29" edge="1">
          <mxGeometry relative="1" as="geometry" />
        </mxCell>
        <mxCell id="MJtFDDiAwrRW_KD7ph5Q-20" value="Add most similar, unlogged comment" style="rounded=0;whiteSpace=wrap;html=1;" parent="1" vertex="1">
          <mxGeometry x="365" y="670" width="120" height="60" as="geometry" />
        </mxCell>
        <mxCell id="MJtFDDiAwrRW_KD7ph5Q-23" value="" style="endArrow=classic;html=1;rounded=0;entryX=0.5;entryY=0;entryDx=0;entryDy=0;exitX=0;exitY=1;exitDx=0;exitDy=0;" parent="1" source="MJtFDDiAwrRW_KD7ph5Q-28" target="MJtFDDiAwrRW_KD7ph5Q-39" edge="1">
          <mxGeometry width="50" height="50" relative="1" as="geometry">
            <mxPoint x="230" y="600" as="sourcePoint" />
            <mxPoint x="190" y="670" as="targetPoint" />
            <Array as="points">
              <mxPoint x="230" y="568" />
            </Array>
          </mxGeometry>
        </mxCell>
        <mxCell id="MJtFDDiAwrRW_KD7ph5Q-24" value="No" style="edgeLabel;html=1;align=center;verticalAlign=middle;resizable=0;points=[];rounded=0;" parent="MJtFDDiAwrRW_KD7ph5Q-23" vertex="1" connectable="0">
          <mxGeometry x="-0.0108" y="-1" relative="1" as="geometry">
            <mxPoint as="offset" />
          </mxGeometry>
        </mxCell>
        <mxCell id="MJtFDDiAwrRW_KD7ph5Q-28" value="Other comments by&amp;nbsp;&lt;div&gt;same user in the same&amp;nbsp;&lt;/div&gt;&lt;div&gt;subreddit?&lt;/div&gt;" style="rhombus;whiteSpace=wrap;html=1;rounded=0;" parent="1" vertex="1">
          <mxGeometry x="265" y="500" width="220" height="90" as="geometry" />
        </mxCell>
        <mxCell id="MJtFDDiAwrRW_KD7ph5Q-29" value="Logged 10 total comments?" style="rhombus;whiteSpace=wrap;html=1;rounded=0;" parent="1" vertex="1">
          <mxGeometry x="560" y="770" width="145" height="80" as="geometry" />
        </mxCell>
        <mxCell id="MJtFDDiAwrRW_KD7ph5Q-30" value="" style="endArrow=classic;html=1;rounded=0;exitX=0;exitY=0;exitDx=0;exitDy=0;entryX=1;entryY=0.5;entryDx=0;entryDy=0;" parent="1" source="MJtFDDiAwrRW_KD7ph5Q-29" target="MJtFDDiAwrRW_KD7ph5Q-28" edge="1">
          <mxGeometry width="50" height="50" relative="1" as="geometry">
            <mxPoint x="400" y="780" as="sourcePoint" />
            <mxPoint x="450" y="730" as="targetPoint" />
            <Array as="points">
              <mxPoint x="596" y="545" />
            </Array>
          </mxGeometry>
        </mxCell>
        <mxCell id="MJtFDDiAwrRW_KD7ph5Q-32" value="No" style="edgeLabel;html=1;align=center;verticalAlign=middle;resizable=0;points=[];rounded=0;" parent="MJtFDDiAwrRW_KD7ph5Q-30" vertex="1" connectable="0">
          <mxGeometry x="0.0116" y="1" relative="1" as="geometry">
            <mxPoint as="offset" />
          </mxGeometry>
        </mxCell>
        <mxCell id="MJtFDDiAwrRW_KD7ph5Q-35" value="Stop logging comments" style="rounded=0;whiteSpace=wrap;html=1;" parent="1" vertex="1">
          <mxGeometry x="572.5" y="920" width="120" height="60" as="geometry" />
        </mxCell>
        <mxCell id="MJtFDDiAwrRW_KD7ph5Q-37" value="" style="endArrow=classic;html=1;rounded=0;exitX=0.5;exitY=1;exitDx=0;exitDy=0;entryX=0.5;entryY=0;entryDx=0;entryDy=0;" parent="1" source="MJtFDDiAwrRW_KD7ph5Q-29" target="MJtFDDiAwrRW_KD7ph5Q-35" edge="1">
          <mxGeometry width="50" height="50" relative="1" as="geometry">
            <mxPoint x="400" y="780" as="sourcePoint" />
            <mxPoint x="450" y="730" as="targetPoint" />
            <Array as="points" />
          </mxGeometry>
        </mxCell>
        <mxCell id="MJtFDDiAwrRW_KD7ph5Q-38" value="Yes" style="edgeLabel;html=1;align=center;verticalAlign=middle;resizable=0;points=[];rounded=0;" parent="MJtFDDiAwrRW_KD7ph5Q-37" vertex="1" connectable="0">
          <mxGeometry x="0.0221" y="1" relative="1" as="geometry">
            <mxPoint as="offset" />
          </mxGeometry>
        </mxCell>
        <mxCell id="MJtFDDiAwrRW_KD7ph5Q-39" value="Other comments by&amp;nbsp;&lt;div&gt;same user in the different&amp;nbsp;&lt;/div&gt;&lt;div&gt;subreddits?&lt;/div&gt;" style="rhombus;whiteSpace=wrap;html=1;rounded=0;" parent="1" vertex="1">
          <mxGeometry x="120" y="655" width="220" height="90" as="geometry" />
        </mxCell>
        <mxCell id="MJtFDDiAwrRW_KD7ph5Q-40" value="Add most similar, unlogged comment" style="rounded=0;whiteSpace=wrap;html=1;" parent="1" vertex="1">
          <mxGeometry x="220" y="830" width="120" height="60" as="geometry" />
        </mxCell>
        <mxCell id="MJtFDDiAwrRW_KD7ph5Q-41" value="" style="endArrow=classic;html=1;rounded=0;exitX=0.718;exitY=0.779;exitDx=0;exitDy=0;exitPerimeter=0;" parent="1" source="MJtFDDiAwrRW_KD7ph5Q-39" edge="1">
          <mxGeometry width="50" height="50" relative="1" as="geometry">
            <mxPoint x="400" y="780" as="sourcePoint" />
            <mxPoint x="278" y="830" as="targetPoint" />
          </mxGeometry>
        </mxCell>
        <mxCell id="MJtFDDiAwrRW_KD7ph5Q-42" value="Yes" style="edgeLabel;html=1;align=center;verticalAlign=middle;resizable=0;points=[];rounded=0;" parent="MJtFDDiAwrRW_KD7ph5Q-41" vertex="1" connectable="0">
          <mxGeometry x="-0.1841" y="-4" relative="1" as="geometry">
            <mxPoint as="offset" />
          </mxGeometry>
        </mxCell>
        <mxCell id="MJtFDDiAwrRW_KD7ph5Q-43" value="Logged 10 total comments?" style="rhombus;whiteSpace=wrap;html=1;rounded=0;" parent="1" vertex="1">
          <mxGeometry x="377.5" y="820" width="145" height="80" as="geometry" />
        </mxCell>
        <mxCell id="MJtFDDiAwrRW_KD7ph5Q-44" value="" style="endArrow=classic;html=1;rounded=0;exitX=1;exitY=0.5;exitDx=0;exitDy=0;entryX=0;entryY=0.5;entryDx=0;entryDy=0;" parent="1" source="MJtFDDiAwrRW_KD7ph5Q-40" target="MJtFDDiAwrRW_KD7ph5Q-43" edge="1">
          <mxGeometry width="50" height="50" relative="1" as="geometry">
            <mxPoint x="400" y="780" as="sourcePoint" />
            <mxPoint x="450" y="730" as="targetPoint" />
          </mxGeometry>
        </mxCell>
        <mxCell id="MJtFDDiAwrRW_KD7ph5Q-45" value="" style="endArrow=classic;html=1;rounded=0;exitX=0.5;exitY=0;exitDx=0;exitDy=0;entryX=1;entryY=0.5;entryDx=0;entryDy=0;" parent="1" source="MJtFDDiAwrRW_KD7ph5Q-43" target="MJtFDDiAwrRW_KD7ph5Q-39" edge="1">
          <mxGeometry width="50" height="50" relative="1" as="geometry">
            <mxPoint x="400" y="780" as="sourcePoint" />
            <mxPoint x="450" y="730" as="targetPoint" />
            <Array as="points">
              <mxPoint x="340" y="820" />
            </Array>
          </mxGeometry>
        </mxCell>
        <mxCell id="MJtFDDiAwrRW_KD7ph5Q-46" value="No" style="edgeLabel;html=1;align=center;verticalAlign=middle;resizable=0;points=[];rounded=0;" parent="MJtFDDiAwrRW_KD7ph5Q-45" vertex="1" connectable="0">
          <mxGeometry x="-0.3217" y="2" relative="1" as="geometry">
            <mxPoint as="offset" />
          </mxGeometry>
        </mxCell>
        <mxCell id="MJtFDDiAwrRW_KD7ph5Q-48" value="" style="endArrow=classic;html=1;rounded=0;exitX=0.5;exitY=1;exitDx=0;exitDy=0;entryX=0;entryY=0.25;entryDx=0;entryDy=0;" parent="1" source="MJtFDDiAwrRW_KD7ph5Q-43" target="MJtFDDiAwrRW_KD7ph5Q-35" edge="1">
          <mxGeometry width="50" height="50" relative="1" as="geometry">
            <mxPoint x="400" y="780" as="sourcePoint" />
            <mxPoint x="450" y="730" as="targetPoint" />
            <Array as="points">
              <mxPoint x="450" y="935" />
            </Array>
          </mxGeometry>
        </mxCell>
        <mxCell id="MJtFDDiAwrRW_KD7ph5Q-49" value="Yes" style="edgeLabel;html=1;align=center;verticalAlign=middle;resizable=0;points=[];rounded=0;" parent="MJtFDDiAwrRW_KD7ph5Q-48" vertex="1" connectable="0">
          <mxGeometry x="-0.1304" relative="1" as="geometry">
            <mxPoint as="offset" />
          </mxGeometry>
        </mxCell>
        <mxCell id="MJtFDDiAwrRW_KD7ph5Q-50" value="" style="endArrow=classic;html=1;rounded=0;exitX=0;exitY=1;exitDx=0;exitDy=0;entryX=0;entryY=0.75;entryDx=0;entryDy=0;" parent="1" source="MJtFDDiAwrRW_KD7ph5Q-39" target="MJtFDDiAwrRW_KD7ph5Q-35" edge="1">
          <mxGeometry width="50" height="50" relative="1" as="geometry">
            <mxPoint x="400" y="780" as="sourcePoint" />
            <mxPoint x="450" y="730" as="targetPoint" />
            <Array as="points">
              <mxPoint x="175" y="965" />
            </Array>
          </mxGeometry>
        </mxCell>
        <mxCell id="MJtFDDiAwrRW_KD7ph5Q-51" value="No" style="edgeLabel;html=1;align=center;verticalAlign=middle;resizable=0;points=[];rounded=0;" parent="MJtFDDiAwrRW_KD7ph5Q-50" vertex="1" connectable="0">
          <mxGeometry x="0.0328" y="-2" relative="1" as="geometry">
            <mxPoint x="1" as="offset" />
          </mxGeometry>
        </mxCell>
        <mxCell id="2-cIgJVy39CJ9VgtjeOx-12" style="edgeStyle=orthogonalEdgeStyle;orthogonalLoop=1;jettySize=auto;html=1;entryX=0.25;entryY=0;entryDx=0;entryDy=0;" edge="1" parent="1" target="2-cIgJVy39CJ9VgtjeOx-4">
          <mxGeometry relative="1" as="geometry">
            <mxPoint x="335" y="1150" as="sourcePoint" />
          </mxGeometry>
        </mxCell>
        <mxCell id="2-cIgJVy39CJ9VgtjeOx-18" style="edgeStyle=orthogonalEdgeStyle;orthogonalLoop=1;jettySize=auto;html=1;" edge="1" parent="1" source="2-cIgJVy39CJ9VgtjeOx-4">
          <mxGeometry relative="1" as="geometry">
            <mxPoint x="1020" y="240" as="targetPoint" />
          </mxGeometry>
        </mxCell>
        <mxCell id="2-cIgJVy39CJ9VgtjeOx-4" value="&lt;font style=&quot;font-size: 18px;&quot;&gt;Persona Generation&lt;/font&gt;" style="rounded=1;whiteSpace=wrap;html=1;" vertex="1" parent="1">
          <mxGeometry x="180" y="1210" width="450" height="60" as="geometry" />
        </mxCell>
        <mxCell id="2-cIgJVy39CJ9VgtjeOx-16" style="edgeStyle=orthogonalEdgeStyle;orthogonalLoop=1;jettySize=auto;html=1;exitX=0.5;exitY=1;exitDx=0;exitDy=0;entryX=0.5;entryY=0;entryDx=0;entryDy=0;" edge="1" parent="1" source="2-cIgJVy39CJ9VgtjeOx-14" target="MJtFDDiAwrRW_KD7ph5Q-1">
          <mxGeometry relative="1" as="geometry" />
        </mxCell>
        <mxCell id="2-cIgJVy39CJ9VgtjeOx-21" style="edgeStyle=orthogonalEdgeStyle;orthogonalLoop=1;jettySize=auto;html=1;exitX=1;exitY=0.5;exitDx=0;exitDy=0;" edge="1" parent="1" source="2-cIgJVy39CJ9VgtjeOx-14" target="2-cIgJVy39CJ9VgtjeOx-22">
          <mxGeometry relative="1" as="geometry">
            <mxPoint x="830" y="40" as="targetPoint" />
            <Array as="points">
              <mxPoint x="870" y="-50" />
              <mxPoint x="870" y="-50" />
            </Array>
          </mxGeometry>
        </mxCell>
        <mxCell id="2-cIgJVy39CJ9VgtjeOx-14" value="&lt;font style=&quot;font-size: 18px;&quot;&gt;Subreddit&lt;/font&gt;" style="whiteSpace=wrap;html=1;rounded=0;" vertex="1" parent="1">
          <mxGeometry x="345" y="-80" width="120" height="60" as="geometry" />
        </mxCell>
        <mxCell id="2-cIgJVy39CJ9VgtjeOx-17" value="&lt;div style=&quot;line-height: 24px; white-space: pre;&quot;&gt;&lt;font style=&quot;color: rgb(0, 0, 0);&quot; face=&quot;Helvetica&quot;&gt;Calculate median number &lt;/font&gt;&lt;/div&gt;&lt;div style=&quot;line-height: 24px; white-space: pre;&quot;&gt;&lt;font style=&quot;color: rgb(0, 0, 0);&quot; face=&quot;Helvetica&quot;&gt;of comments for &lt;/font&gt;&lt;span style=&quot;background-color: transparent;&quot;&gt;the &lt;/span&gt;&lt;/div&gt;&lt;div style=&quot;line-height: 24px; white-space: pre;&quot;&gt;&lt;span style=&quot;background-color: transparent;&quot;&gt;10 posts (cap at 100)&lt;/span&gt;&lt;/div&gt;" style="shape=parallelogram;html=1;strokeWidth=2;perimeter=parallelogramPerimeter;whiteSpace=wrap;rounded=1;arcSize=12;size=0.23;" vertex="1" parent="1">
          <mxGeometry x="240" y="1040" width="240" height="110" as="geometry" />
        </mxCell>
        <mxCell id="2-cIgJVy39CJ9VgtjeOx-23" style="edgeStyle=orthogonalEdgeStyle;orthogonalLoop=1;jettySize=auto;html=1;" edge="1" parent="1" source="2-cIgJVy39CJ9VgtjeOx-22">
          <mxGeometry relative="1" as="geometry">
            <mxPoint x="1260" y="75" as="targetPoint" />
          </mxGeometry>
        </mxCell>
        <mxCell id="2-cIgJVy39CJ9VgtjeOx-22" value="&lt;font style=&quot;font-size: 18px;&quot;&gt;COMMENT&lt;/font&gt;&lt;div&gt;&lt;font style=&quot;font-size: 18px;&quot;&gt;GENERATION&lt;/font&gt;&lt;/div&gt;" style="rounded=1;whiteSpace=wrap;html=1;" vertex="1" parent="1">
          <mxGeometry x="920" y="-90" width="210" height="330" as="geometry" />
        </mxCell>
        <mxCell id="2-cIgJVy39CJ9VgtjeOx-24" value="&lt;font style=&quot;font-size: 18px;&quot;&gt;COMMENTS&lt;/font&gt;" style="rounded=0;whiteSpace=wrap;html=1;" vertex="1" parent="1">
          <mxGeometry x="1260" y="45" width="150" height="60" as="geometry" />
        </mxCell>
      </root>
    </mxGraphModel>
  </diagram>
  <diagram id="1nnddM2Z_qZHgK3uRu0r" name="第 2 页">
    <mxGraphModel dx="786" dy="562" grid="1" gridSize="10" guides="1" tooltips="1" connect="1" arrows="1" fold="1" page="1" pageScale="1" pageWidth="827" pageHeight="1169" math="0" shadow="0">
      <root>
        <mxCell id="0" />
        <mxCell id="1" parent="0" />
      </root>
    </mxGraphModel>
  </diagram>
</mxfile>
